<?xml version="1.0" encoding="UTF-8" standalone="no"?>
<svg
   xmlns:dc="http://purl.org/dc/elements/1.1/"
   xmlns:cc="http://creativecommons.org/ns#"
   xmlns:rdf="http://www.w3.org/1999/02/22-rdf-syntax-ns#"
   xmlns:svg="http://www.w3.org/2000/svg"
   xmlns="http://www.w3.org/2000/svg"
   xmlns:xlink="http://www.w3.org/1999/xlink"
   xmlns:sodipodi="http://sodipodi.sourceforge.net/DTD/sodipodi-0.dtd"
   xmlns:inkscape="http://www.inkscape.org/namespaces/inkscape"
   inkscape:version="1.0 (4035a4f, 2020-05-01)"
   inkscape:export-ydpi="96"
   inkscape:export-xdpi="96"
   inkscape:export-filename="/Users/georgiamartinez/chrome-logo.png"
   sodipodi:docname="chrome-logo.svg"
   id="svg162"
   version="1.1"
   viewBox="0 0 192 192"
   height="48"
   width="48">
  <metadata
     id="metadata166">
    <rdf:RDF>
      <cc:Work
         rdf:about="">
        <dc:format>image/svg+xml</dc:format>
        <dc:type
           rdf:resource="http://purl.org/dc/dcmitype/StillImage" />
      </cc:Work>
    </rdf:RDF>
  </metadata>
  <sodipodi:namedview
     inkscape:current-layer="svg162"
     inkscape:window-maximized="0"
     inkscape:window-y="63"
     inkscape:window-x="82"
     inkscape:cy="12.355316"
     inkscape:cx="12.712713"
     inkscape:zoom="3.8488352"
     showgrid="false"
     id="namedview164"
     inkscape:window-height="776"
     inkscape:window-width="1440"
     inkscape:pageshadow="2"
     inkscape:pageopacity="0"
     guidetolerance="10"
     gridtolerance="10"
     objecttolerance="10"
     borderopacity="1"
     bordercolor="#666666"
     pagecolor="#ffffff" />
  <defs
     id="defs11">
    <circle
       r="88"
       cy="96"
       cx="96"
       id="a" />
  </defs>
  <clipPath
     id="b">
    <use
       id="use13"
       overflow="visible"
       xlink:href="#a" />
  </clipPath>
  <g
     id="g25"
     clip-path="url(#b)">
    <path
       id="path16"
       d="M21.97 8v108h39.39L96 56h88V8z"
       fill="#DB4437" />
    <linearGradient
       y2="44.354"
       x2="81.837"
       y1="75.021"
       x1="29.337"
       gradientUnits="userSpaceOnUse"
       id="c">
      <stop
         id="stop18"
         stop-opacity=".6"
         stop-color="#a52714"
         offset="0" />
      <stop
         id="stop20"
         stop-opacity="0"
         stop-color="#a52714"
         offset=".66" />
    </linearGradient>
    <path
       id="path23"
       d="M21.97 8v108h39.39L96 56h88V8z"
       fill="url(#c)" />
  </g>
  <path
     id="path27"
     d="M62.31 115.65L22.48 47.34l-.58 1 39.54 67.8z"
     fill-opacity=".15"
     fill="#3E2723"
     clip-path="url(#b)" />
  <g
     id="g38"
     clip-path="url(#b)">
    <path
       id="path29"
       d="M8 184h83.77l38.88-38.88V116H61.36L8 24.48z"
       fill="#0F9D58" />
    <linearGradient
       y2="130.329"
       x2="52.538"
       y1="164.495"
       x1="110.872"
       gradientUnits="userSpaceOnUse"
       id="d">
      <stop
         id="stop31"
         stop-opacity=".4"
         stop-color="#055524"
         offset="0" />
      <stop
         id="stop33"
         stop-opacity="0"
         stop-color="#055524"
         offset=".33" />
    </linearGradient>
    <path
       id="path36"
       d="M8 184h83.77l38.88-38.88V116H61.36L8 24.48z"
       fill="url(#d)" />
  </g>
  <path
     id="path40"
     d="M129.84 117.33l-.83-.48L90.62 184h1.15l38.1-66.64z"
     fill-opacity=".15"
     fill="#263238"
     clip-path="url(#b)" />
  <g
     id="g59"
     clip-path="url(#b)">
    <defs
       id="defs43">
      <path
         d="M8 184h83.77l38.88-38.88V116H61.36L8 24.48z"
         id="e" />
    </defs>
    <clipPath
       id="f">
      <use
         id="use45"
         overflow="visible"
         xlink:href="#e" />
    </clipPath>
    <g
       id="g57"
       clip-path="url(#f)">
      <path
         id="path48"
         d="M96 56l34.65 60-38.88 68H184V56z"
         fill="#FFCD40" />
      <linearGradient
         y2="114.13"
         x2="136.547"
         y1="49.804"
         x1="121.858"
         gradientUnits="userSpaceOnUse"
         id="g">
        <stop
           id="stop50"
           stop-opacity=".3"
           stop-color="#ea6100"
           offset="0" />
        <stop
           id="stop52"
           stop-opacity="0"
           stop-color="#ea6100"
           offset=".66" />
      </linearGradient>
      <path
         id="path55"
         d="M96 56l34.65 60-38.88 68H184V56z"
         fill="url(#g)" />
    </g>
  </g>
  <g
     id="g70"
     clip-path="url(#b)">
    <path
       id="path61"
       d="M96 56l34.65 60-38.88 68H184V56z"
       fill="#FFCD40" />
    <linearGradient
       y2="114.13"
       x2="136.547"
       y1="49.804"
       x1="121.858"
       gradientUnits="userSpaceOnUse"
       id="h">
      <stop
         id="stop63"
         stop-opacity=".3"
         stop-color="#ea6100"
         offset="0" />
      <stop
         id="stop65"
         stop-opacity="0"
         stop-color="#ea6100"
         offset=".66" />
    </linearGradient>
    <path
       id="path68"
       d="M96 56l34.65 60-38.88 68H184V56z"
       fill="url(#h)" />
  </g>
  <g
     id="g89"
     clip-path="url(#b)">
    <defs
       id="defs73">
      <path
         d="M96 56l34.65 60-38.88 68H184V56z"
         id="i" />
    </defs>
    <clipPath
       id="j">
      <use
         id="use75"
         overflow="visible"
         xlink:href="#i" />
    </clipPath>
    <g
       id="g87"
       clip-path="url(#j)">
      <path
         id="path78"
         d="M21.97 8v108h39.39L96 56h88V8z"
         fill="#DB4437" />
      <linearGradient
         y2="44.354"
         x2="81.837"
         y1="75.021"
         x1="29.337"
         gradientUnits="userSpaceOnUse"
         id="k">
        <stop
           id="stop80"
           stop-opacity=".6"
           stop-color="#a52714"
           offset="0" />
        <stop
           id="stop82"
           stop-opacity="0"
           stop-color="#a52714"
           offset=".66" />
      </linearGradient>
      <path
         id="path85"
         d="M21.97 8v108h39.39L96 56h88V8z"
         fill="url(#k)" />
    </g>
  </g>
  <radialGradient
     gradientUnits="userSpaceOnUse"
     gradientTransform="translate(-576)"
     r="84.078"
     cy="55.948"
     cx="668.176"
     id="l">
    <stop
       id="stop91"
       stop-opacity=".2"
       stop-color="#3e2723"
       offset="0" />
    <stop
       id="stop93"
       stop-opacity="0"
       stop-color="#3e2723"
       offset="1" />
  </radialGradient>
  <path
     id="path96"
     d="M96 56v20.95L174.4 56z"
     fill="url(#l)"
     clip-path="url(#b)" />
  <g
     id="g115"
     clip-path="url(#b)">
    <defs
       id="defs99">
      <path
         d="M21.97 8v40.34L61.36 116 96 56h88V8z"
         id="m" />
    </defs>
    <clipPath
       id="n">
      <use
         id="use101"
         overflow="visible"
         xlink:href="#m" />
    </clipPath>
    <g
       id="g113"
       clip-path="url(#n)">
      <path
         id="path104"
         d="M8 184h83.77l38.88-38.88V116H61.36L8 24.48z"
         fill="#0F9D58" />
      <linearGradient
         y2="130.329"
         x2="52.538"
         y1="164.495"
         x1="110.872"
         gradientUnits="userSpaceOnUse"
         id="o">
        <stop
           id="stop106"
           stop-opacity=".4"
           stop-color="#055524"
           offset="0" />
        <stop
           id="stop108"
           stop-opacity="0"
           stop-color="#055524"
           offset=".33" />
      </linearGradient>
      <path
         id="path111"
         d="M8 184h83.77l38.88-38.88V116H61.36L8 24.48z"
         fill="url(#o)" />
    </g>
  </g>
  <radialGradient
     gradientUnits="userSpaceOnUse"
     gradientTransform="translate(-576)"
     r="78.044"
     cy="48.52"
     cx="597.875"
     id="p">
    <stop
       id="stop117"
       stop-opacity=".2"
       stop-color="#3e2723"
       offset="0" />
    <stop
       id="stop119"
       stop-opacity="0"
       stop-color="#3e2723"
       offset="1" />
  </radialGradient>
  <path
     id="path122"
     d="M21.97 48.45l57.25 57.24L61.36 116z"
     fill="url(#p)"
     clip-path="url(#b)" />
  <radialGradient
     gradientUnits="userSpaceOnUse"
     gradientTransform="translate(-576)"
     r="87.87"
     cy="96.138"
     cx="671.844"
     id="q">
    <stop
       id="stop124"
       stop-opacity=".2"
       stop-color="#263238"
       offset="0" />
    <stop
       id="stop126"
       stop-opacity="0"
       stop-color="#263238"
       offset="1" />
  </radialGradient>
  <path
     id="path129"
     d="M91.83 183.89l20.96-78.2L130.65 116z"
     fill="url(#q)"
     clip-path="url(#b)" />
  <g
     id="g135"
     clip-path="url(#b)">
    <circle
       id="circle131"
       r="40"
       cy="96"
       cx="96"
       fill="#F1F1F1" />
    <circle
       id="circle133"
       r="32"
       cy="96"
       cx="96"
       fill="#4285F4" />
  </g>
  <g
     id="g145"
     clip-path="url(#b)">
    <path
       id="path137"
       d="M96 55c-22.09 0-40 17.91-40 40v1c0-22.09 17.91-40 40-40h88v-1H96z"
       fill-opacity=".2"
       fill="#3E2723" />
    <path
       id="path139"
       d="M130.6 116c-6.92 11.94-19.81 20-34.6 20-14.8 0-27.69-8.06-34.61-20h-.04L8 24.48v1L61.36 117h.04c6.92 11.94 19.81 20 34.61 20 14.79 0 27.68-8.05 34.6-20h.05v-1h-.06z"
       fill-opacity=".1"
       fill="#FFF" />
    <path
       id="path141"
       d="M97 56c-.17 0-.33.02-.5.03C118.36 56.3 136 74.08 136 96s-17.64 39.7-39.5 39.97c.17 0 .33.03.5.03 22.09 0 40-17.91 40-40s-17.91-40-40-40z"
       fill="#3E2723"
       opacity=".1" />
    <path
       id="path143"
       d="M131 117.33c3.4-5.88 5.37-12.68 5.37-19.96 0-4.22-.66-8.28-1.87-12.09.95 3.42 1.5 7.01 1.5 10.73 0 7.28-1.97 14.08-5.37 19.96l.02.04-38.88 68h1.16l38.09-66.64-.02-.04z"
       fill-opacity=".2"
       fill="#FFF" />
  </g>
  <g
     id="g151"
     clip-path="url(#b)">
    <path
       id="path147"
       d="M96 9c48.43 0 87.72 39.13 87.99 87.5 0-.17.01-.33.01-.5 0-48.6-39.4-88-88-88S8 47.4 8 96c0 .17.01.33.01.5C8.28 48.13 47.57 9 96 9z"
       fill-opacity=".2"
       fill="#FFF" />
    <path
       id="path149"
       d="M96 183c48.43 0 87.72-39.13 87.99-87.5 0 .17.01.33.01.5 0 48.6-39.4 88-88 88S8 144.6 8 96c0-.17.01-.33.01-.5C8.28 143.87 47.57 183 96 183z"
       fill-opacity=".15"
       fill="#3E2723" />
  </g>
  <radialGradient
     gradientUnits="userSpaceOnUse"
     r="176.746"
     cy="32.014"
     cx="34.286"
     id="r">
    <stop
       id="stop153"
       stop-opacity=".1"
       stop-color="#fff"
       offset="0" />
    <stop
       id="stop155"
       stop-opacity="0"
       stop-color="#fff"
       offset="1" />
  </radialGradient>
  <circle
     id="circle158"
     r="88"
     cy="96"
     cx="96"
     fill="url(#r)" />
  <path
     id="path160"
     d="M0 0h192v192H0z"
     fill="none" />
</svg>
